<svg xmlns="http://www.w3.org/2000/svg" width="56" height="60" viewBox="0 0 56 60">
  <path id="icons8-html-5" d="M60.106,2.423A1.387,1.387,0,0,0,59.1,2H5.829a1.387,1.387,0,0,0-1.007.423,1.251,1.251,0,0,0-.352,1l4.8,51.425a1.324,1.324,0,0,0,.985,1.141l21.831,5.961a1.287,1.287,0,0,0,.373.051,1.313,1.313,0,0,0,.373-.051l21.847-5.961a1.331,1.331,0,0,0,.985-1.141L60.458,3.422A1.251,1.251,0,0,0,60.106,2.423ZM48.618,20.154H22.968l.612,6.639H48L46.168,46.414,32.453,50.378l-.133-.041L18.765,46.409l-.74-7.994h6.642l.288,3.1,7.579,1.518,7.44-1.518.794-8.4H17.53L15.724,13.81H49.209Z" transform="translate(-4.464 -2)" fill="#fff"/>
</svg>
