<svg xmlns="http://www.w3.org/2000/svg" width="71" height="71" viewBox="0 0 71 71">
  <g id="surface34517081" transform="translate(-6 -6)">
    <path id="Path_2" data-name="Path 2" d="M15.6,6A9.642,9.642,0,0,0,6,15.6V67.421A9.638,9.638,0,0,0,15.6,77H67.421A9.633,9.633,0,0,0,77,67.421V15.6A9.638,9.638,0,0,0,67.421,6Zm0,5.462H67.421A4.084,4.084,0,0,1,71.538,15.6V67.421a4.08,4.08,0,0,1-4.117,4.117H15.6a4.084,4.084,0,0,1-4.139-4.117V15.6A4.089,4.089,0,0,1,15.6,11.462Zm6.784,5.462a5.462,5.462,0,1,0,5.462,5.462A5.472,5.472,0,0,0,22.385,16.923ZM16.923,33.308V66.077H27.846V33.308Zm16.385,0V66.077H44.231V51.442c0-4.544.427-8.619,5.888-8.619,5.376,0,5.035,4.886,5.035,8.918V66.077H66.077V49.906c0-9.387-1.963-16.6-12.609-16.6-5.12,0-7.7,2.048-9.11,4.779h-.128V33.308Zm0,0" fill="#fff"/>
  </g>
</svg>
