<svg xmlns="http://www.w3.org/2000/svg" width="71" height="71" viewBox="0 0 71 71">
  <g id="surface34516515" transform="translate(-6 -6)">
    <path id="Path_1" data-name="Path 1" d="M41.5,6C21.894,6,6,22.3,6,42.4A36.373,36.373,0,0,0,30.278,76.957c1.771.329,3.029-1.534,3.029-2.936,0-.855.021-1.885,0-4.909C23.43,71.3,20.337,64.2,20.337,64.2c-1.621-4.207-3.584-5.413-3.584-5.413-3.221-2.257.235-2.191.235-2.191a7.324,7.324,0,0,1,5.4,3.4c2.731,4.909,8.9,4.427,10.923,3.506a10.229,10.229,0,0,1,.832-4.887C22.982,56.6,16.9,49.981,16.923,40.821A17.992,17.992,0,0,1,21.7,28.089c-1.28-1.665-2.155-7.363.469-10.869a14.424,14.424,0,0,1,10.518,4.887,23.4,23.4,0,0,1,8.79-1.381,24.289,24.289,0,0,1,8.79,1.315A14.558,14.558,0,0,1,60.807,17.22c2.624,3.506,1.749,9.2.725,10.76,2.816,3.046,4.544,7.254,4.544,12.842,0,9.16-6.059,15.778-17.2,17.772.7,1.1.811,2.63.811,4.909V74.021c0,1.4,1.237,3.287,3.051,2.936A36.376,36.376,0,0,0,77,42.4C77,22.3,61.106,6,41.5,6Zm0,0" fill="#fff"/>
  </g>
</svg>
